<svg width="16" height="16" viewBox="0 0 16 16" fill="none" xmlns="http://www.w3.org/2000/svg">
<path d="M10.6431 9.5366C11.5592 8.34189 11.9865 6.84369 11.8382 5.3458C11.6898 3.8479 10.9771 2.46244 9.84438 1.47033C8.71167 0.478222 7.24382 -0.0462697 5.73846 0.00320731C4.2331 0.0526843 2.80291 0.672427 1.73788 1.73677C0.672859 2.80111 0.0527181 4.23038 0.00320937 5.73478C-0.0462994 7.23917 0.478529 8.70608 1.47128 9.83805C2.46402 10.97 3.85038 11.6823 5.34923 11.8306C6.84808 11.9788 8.34725 11.5518 9.54273 10.6362L14.6844 15.7746C14.829 15.9189 15.025 16 15.2294 16C15.4338 16 15.6298 15.9189 15.7744 15.7746C15.9189 15.6301 16 15.4342 16 15.2299C16 15.0257 15.9189 14.8298 15.7744 14.6853L10.6431 9.5366ZM5.95384 10.3176C5.08945 10.3176 4.24447 10.0615 3.52576 9.58156C2.80705 9.10164 2.24688 8.41951 1.91609 7.62143C1.5853 6.82335 1.49875 5.94517 1.66739 5.09793C1.83602 4.2507 2.25226 3.47246 2.86348 2.86164C3.4747 2.25082 4.25343 1.83484 5.10121 1.66632C5.94899 1.49779 6.82774 1.58428 7.62633 1.91486C8.42492 2.24543 9.10749 2.80524 9.58772 3.52349C10.0679 4.24175 10.3243 5.08618 10.3243 5.95001C10.3216 7.10754 9.86022 8.21689 9.0412 9.03539C8.22217 9.85389 7.11211 10.3149 5.95384 10.3176Z" fill="#00240F"/>
</svg>
